<svg width="72" height="72" viewBox="0 0 72 72" fill="none" xmlns="http://www.w3.org/2000/svg">
<path d="M6.75 47.25L22.227 31.773C22.8538 31.1462 23.5979 30.649 24.4169 30.3098C25.2358 29.9705 26.1136 29.7959 27 29.7959C27.8864 29.7959 28.7642 29.9705 29.5831 30.3098C30.4021 30.649 31.1462 31.1462 31.773 31.773L47.25 47.25M42.75 42.75L46.977 38.523C47.6038 37.8962 48.3479 37.399 49.1669 37.0598C49.9858 36.7205 50.8636 36.5459 51.75 36.5459C52.6364 36.5459 53.5142 36.7205 54.3331 37.0598C55.1521 37.399 55.8962 37.8962 56.523 38.523L65.25 47.25M11.25 58.5H60.75C61.9435 58.5 63.0881 58.0259 63.932 57.182C64.7759 56.3381 65.25 55.1935 65.25 54V18C65.25 16.8065 64.7759 15.6619 63.932 14.818C63.0881 13.9741 61.9435 13.5 60.75 13.5H11.25C10.0565 13.5 8.91193 13.9741 8.06802 14.818C7.22411 15.6619 6.75 16.8065 6.75 18V54C6.75 55.1935 7.22411 56.3381 8.06802 57.182C8.91193 58.0259 10.0565 58.5 11.25 58.5ZM42.75 24.75H42.774V24.774H42.75V24.75ZM43.875 24.75C43.875 25.0484 43.7565 25.3345 43.5455 25.5455C43.3345 25.7565 43.0484 25.875 42.75 25.875C42.4516 25.875 42.1655 25.7565 41.9545 25.5455C41.7435 25.3345 41.625 25.0484 41.625 24.75C41.625 24.4516 41.7435 24.1655 41.9545 23.9545C42.1655 23.7435 42.4516 23.625 42.75 23.625C43.0484 23.625 43.3345 23.7435 43.5455 23.9545C43.7565 24.1655 43.875 24.4516 43.875 24.75Z" stroke="#C5C5C5" stroke-width="2.25" stroke-linecap="round" stroke-linejoin="round"/>
</svg>
