<svg width="80" height="80" viewBox="0 0 80 80" fill="none" xmlns="http://www.w3.org/2000/svg">
<path d="M7.5 45H20.3667C21.7593 45.0004 23.1244 45.3885 24.3089 46.1208C25.4934 46.8532 26.4507 47.901 27.0733 49.1467L27.9267 50.8533C28.5496 52.0995 29.5073 53.1476 30.6925 53.88C31.8777 54.6124 33.2434 55.0003 34.6367 55H45.3633C46.7566 55.0003 48.1223 54.6124 49.3075 53.88C50.4927 53.1476 51.4504 52.0995 52.0733 50.8533L52.9267 49.1467C53.5496 47.9005 54.5073 46.8524 55.6925 46.12C56.8777 45.3876 58.2434 44.9997 59.6367 45H72.5M7.5 46.1267V60C7.5 61.9891 8.29018 63.8968 9.6967 65.3033C11.1032 66.7098 13.0109 67.5 15 67.5H65C66.9891 67.5 68.8968 66.7098 70.3033 65.3033C71.7098 63.8968 72.5 61.9891 72.5 60V46.1267C72.5 45.38 72.3867 44.6367 72.1667 43.9233L64.1333 17.7933C63.6615 16.2608 62.711 14.9198 61.4212 13.9672C60.1314 13.0145 58.5702 12.5003 56.9667 12.5H23.0367C21.4332 12.5003 19.872 13.0145 18.5821 13.9672C17.2923 14.9198 16.3418 16.2608 15.87 17.7933L7.83333 43.9233C7.61312 44.6371 7.50077 45.3797 7.5 46.1267Z" stroke="#757575" stroke-width="1.5" stroke-linecap="round" stroke-linejoin="round"/>
</svg>
